<svg xmlns="http://www.w3.org/2000/svg" height="800" width="1200" viewBox="-4.94931 -1.6768225 42.89402 10.060935"><defs><clipPath clipPathUnits="userSpaceOnUse" id="a"><path d="M110.197 504.683h93.577v19.047h-93.577z"/></clipPath></defs><g clip-path="url(#a)" transform="matrix(.35278 0 0 -.35278 -38.89125 184.74837)"><path d="M194.8502 523.113c4.915 0 8.923-4.008 8.923-8.923s-4.008-8.923-8.923-8.923-8.923 4.008-8.923 8.923 4.008 8.923 8.923 8.923" fill="#c38a08" fill-rule="evenodd"/><path d="M194.8502 522.5503c4.605 0 8.36-3.756 8.36-8.361 0-4.604-3.755-8.36-8.36-8.36-4.605 0-8.36 3.756-8.36 8.36 0 4.605 3.755 8.361 8.36 8.361" fill="#982f32" fill-rule="evenodd"/><path d="M196.145 511.0214c-.102-.073-.625-.142-.722-.052-.195.179.103.367.284.43.121.043.653-.224.438-.378m3.867.866c.078.308-.169.6-.01.668.23.098.392-.07.472-.25.047-.103.004-.365-.062-.443-.121-.142-.427-.08-.4.025m-.183 5.698c-.122.027-.25.12-.357.163-.114.046.042.155.084.181.097.059.224.098.326.096.085-.002.352-.175.298-.31-.065-.16-.207-.163-.351-.13m-3.075-2.925c.013.095-.078.145-.049.2.04.075.166.084.267.164.162.126.148.349-.223.486-.353.131-.607-.084-.691-.374-.112-.39.187-.614.314-.63.115-.015.352-.048.382.154m-5.261 3.666c.224.288.535.461.386.857-.145.385-.634.492-.991.496-.51.005-.934-.636-.703-1.096.125-.249.36-.499.656-.508.347-.01.459.003.652.251m9.848-4.101c-.177.019-.364.145-.359.337.002.068.015.132.038.19.042.101.122.187.22.234.094.046.194.049.29.006.088-.04.207-.122.164-.235-.029-.077-.102-.163-.116-.231-.016-.08.02-.163-.033-.231-.054-.069-.122-.079-.204-.07m-8.6-3.864c-.046.269-.117.629.091.833.129.126.325.088.449-.046.245-.264.211-.74-.014-1.003-.172-.202-.489-.003-.526.216m-4.751 1.102c-.245-.124-.461-.21-.579.085-.038.095-.037.25.014.338.014.025.045.052.079.055.197.015.464-.212.515-.395.008-.027 0-.069-.029-.083m.278-.406c-.327-.14-.752-.26-1.035.021-.119.119-.175.328-.196.489-.033.263.063.556.256.734.058.054.134.097.213.128.166.067.378.06.536-.025.3-.162.464-.354.666-.634.047-.065.143-.104.159-.187.021-.116-.048-.182-.143-.244-.151-.099-.295-.213-.456-.282m-1.634 4.679c.115.612.298 1.2.539 1.758.173-.083.325-.209.428-.361.185-.274.234-.619.057-.914-.049-.083-.141-.111-.233-.128-.081-.015-.296.069-.352.005-.019-.021.017-.057.042-.08.057-.051.129-.088.196-.133.105-.07.183-.127.229-.243.031-.079-.012-.149-.076-.191-.15-.1-.464.038-.595.122-.074.047-.154.103-.235.165m4.581-9.073c-.278.135-.547.285-.807.449.267.101.517.247.683.369.724.53 1.782 2.022.649 2.725-.245.153-.822.145-.981-.131-.047-.081-.229-.589-.112-.667.25-.168.741.048.969.097.25.053-.004-.39.006-.511.006-.082.035-.161-.008-.229-.199-.318-.789-.402-1.08-.164-.552.452-.825 1.25-.448 1.912.143.251.362.223.632.23.762.018 1.857-.174 2.179-.98.047-.117.08-.278.09-.448.033-.549-.326-1.203-.601-1.666-.31-.403-.72-.758-1.171-.986m6.841-.193a8.3466 8.3466 0 00-.749-.272c-.471.378-.947.745-1.438 1.107-.022.017-.097.071-.184.133-.215-.195-.435-.346-.522-.381-.787-.316-1.691.062-2.174.728-.174.241-.216.58.17.512.175-.032.281-.082.429-.181.325-.216.628-.518 1.017-.321.089.045.198.15.305.276-.161.105-.433.32-.445.336-.09.119-.034.24.1.271.205.046.36.05.528-.008.051-.015.115-.043.176-.075.031.057.055.108.069.149.111.322.192.889-.113 1.16-.457.404-.886.521-1.115 1.105-.263.67.452.251.518.332.419.522.643.352 1.204.483.32-.024.637-.155.811-.443.162-.267.65.211.594.468-.089.404-.339.716-.506.781-.093.036-.171.062-.188.022-.032-.078-.023-.063-.029-.089-.051-.238-.385-.407-.55-.225-.034.036-.034.067-.01.159.007.029.069.1.033.119-.035.019-.169-.014-.225-.041-.132-.064-.298-.039-.394.133-.081.144.126.321.303.388.109.04.21.075.288.103.137.048.23.226.304.348.309.514.856 1.065 1.39 1.333.668.335 1.766.663 2.354.01.127-.141.279-.528.273-.894-.01-.558-.589-.791-.836-.864-.49-.147-1.028-.007-1.129.585-.04.235.815.276.922.187.03-.025.027-.082.061-.101.394-.223.424.981-.023 1.033-.627.074-1.176-.249-1.679-.603-.158-.112-.703-.564-.783-.886-.064-.254.011-.225.164-.285.653-.258.87-.759.891-1.379.02-.579-.315-.848-.722-.959-.215-.33-.612-.446-.77-.462-.178-.044-.353-.048-.554.004-.034.009-.064.022-.093.037-.051.02-.1.045-.144.071-.019.006-.038.011-.059.013-.063.008-.057-.055-.026-.088.142-.146.342-.343.447-.518.375-.619.329-1.295.243-1.678-.013-.041-.031-.083-.053-.125.546-.404 1.256-.954 1.919-1.508m4.093 3.651c-.171-.305-.359-.598-.565-.877-.064.317-.155.701-.218.894-.212.651-.384 1.004-.505 1.15-.043.051-.085.098-.124.143-.007-.005-.013-.011-.02-.017-.16-.178-.582-.098-.533-.493.013-.274.546-1.122.197-1.333-.175-.105-.208-.293-.256-.509.011-.052.021-.103.031-.15.024-.085.364-.096.536-.118.049-.012.294-.027.525-.029-.132-.156-.269-.306-.412-.451-.182.016-.336.034-.417.024-.036-.004-.05-.008-.059-.045-.018-.081.049-.204.065-.287.006-.024.012-.046.017-.067-.162-.145-.331-.284-.505-.417.001.022.001.049 0 .08-.01.22-.032.548-.154.744-.003.005-.007.01-.012.015-.074-.042-.162-.064-.236-.036-.087.066-.166.135-.239.206-.092.015-.185.027-.272.042-.109.027-.428.131-.465-.017-.073-.079.042-.773.109-.884.364-.123.743-.25 1.092-.282-.194-.14-.394-.272-.6-.395-.165.048-.32.09-.465.108-.117.014-.094-.15-.104-.261-.027-.3-.308-.19-.34.046-.014.109-.021.313-.088.39-.07.08-.866.357-.953.388-.166.061-.343.296-.325.426.01.163.478-.054.597-.093.197-.065.383-.164.588-.155.032.001.035.053.034.086-.005.147-.099.836-.133.849-.072.027-.12.029-.198.054-.387.126-.592.129-.97.286-.172.072-.331.203-.312.345.021.152.205.051.431-.04.364-.146.621-.216.997-.237.12-.006.066.279.083.372.005.024.044.125.113.134.069.01.171-.038.241-.183.05-.104.048-.191.079-.337.056-.016.21-.045.392-.079-.141.196-.272.389-.428.564-.186.165-.352.313-.591.388-.197.058-.766.124-.45.45.125.129.351.15.411.141.617-.093.869-.417 1.443-1.161.349-.452.423-.259.504.166.198 1.036-.182 1.26.033 1.864.152.435-.388.828-.195 1.143.288.471.883.272 1.334.311.913.081 1.566.406 1.461 1.468-.043.443-.432 1.81-.982 1.78-.669-.036-1.811-.428-2.414.059-.481.388-1.211 1.014-.59 1.622.445.435.594.614 1.267.62.378.003.922-.239 1.131-.614.217-.392-.212-.816-.666-.825-.282-.005-.43.096-.692.194-.12.044-.302.125-.409.017-.115-.115-.059-.432.045-.533.108-.106.328-.069.475-.056.641.055 1.144-.1 1.733.314.572.403.066 1.402-.21 1.647-.648.577-1.164.96-2.042 1.084-.431.061-1.108.044-1.542-.022-.405-.061-.954-.315-.903-.412.293-.553.368-1.422.322-2.023-.148-1.95-2.01-2.273-3.62-2.389-.581-.042-1.444.238-1.846.449-.488.255-.86.715-.722 1.268.072.291.259.594.407.816.319.474.751.717 1.29.844.695.162 1.246.1 1.618-.128.133-.082.435-.27.641-.51.307-.356.422-.637-.066-.998-.273-.203-.795-.352-1.092-.112-.086.069-.537.446-.336.568.105.064.806-.121.772.163-.039.317-.404.469-.668.539-.771.202-1.84-.754-1.817-1.512.035-1.16 1.608-.847 2.374-.669.404.093.805.201 1.186.372.403.182.709.57.881 1.006.223.569.237 1.518-.03 2.071-.106.218-.273.489-.537.842-.184.245-.356.48-.612.657-.139.096-.364.33-.417.232-.053-.099-.128-.33-.146-.482-.024-.206-.048-.56-.304-.414-.129.074-.172.176-.173.348-.001.232.071.417.155.633.027.07.089.154.067.17-.421.305-1.453.244-1.931.151-1.524-.296-2.682-1.261-3.232-2.732-.239-.64-.372-1.368-.294-2.052.053-.463.203-.927.433-1.319.029-.05.027-.086.086-.071.118.029.382.107.806.104.749-.006.842-.483.496-.449-.061-.007-.618-.077-.842-.157-.089-.032-.109-.05-.06-.124.409-.612 1.048-1.191 1.666-1.571.15-.091.664-.366.617-.28-.255.472-.163.999.277 1.327.621.463 1.045.772 1.859.705.458-.037.828-.165 1.181-.501.29-.276.441-.57.027-.897-.256-.202-.566-.366-.804-.407-.283-.049-.542-.407-.799-.107-.869 1.015 1.402.313 1.159 1.029-.066.193-.213.27-.396.328-.659.208-1.861-.518-2.004-1.174-.014-.063-.067-.314.226-.523.153-.11.508-.064.335-.347-.147-.238-.569-.069-.771-.023-1.001.234-1.885 1.063-2.556 1.813-.137.153-.393.428-.434.482-.033.044-.325-.26-.439-.392-.291-.336-.268-.739.093-1.016.526-.401 1.217-.555 1.507-1.219.327-.748-.35-1.413-.739-1.975-.31-.448-.444-.893-.41-1.34-.28.283-.539.585-.776.905.096.523.328 1.027.682 1.423.213.322.489.698.433 1.079-.028.189-.082.256-.237.343-.584.326-1.202.656-1.318 1.388-.044.562.273.996.714 1.307.118.068.111.078.051.189-.142.324-.247.655-.355.992-.261 1.238-.088 2.448.543 3.557.569.962 1.522 1.726 2.594 2.1.966.337 2.085.381 3.01-.099.21.129.411.251.645.331.725.249 1.503.199 1.973-.359.179-.212.37-.556.204-.832-.253-.421-.831-.448-1.07-.006-.052.096-.084.164-.044.27.048.13.197.052.298.107.034.019.018.122.003.148-.198.348-.608.358-.968.305-.26-.038-.718-.238-.592-.298.097-.047.255-.159.351-.243.266-.232.507-.455.718-.738.105-.141.21-.283.34-.403.047-.044.111.001.164.033.921.556 1.78.629 2.91.419 1.235-.23 1.88-.894 2.547-1.687.373-.444.684-1.426.367-1.908-.05-.135-.038-.187.048-.307.742-.787 1.239-2.018.97-3.106-.233-.509-.616-.834-1.2-.829-.129-.001-.433-.11-.61-.207.129-.168.291-.492.51-1.059.126-.355.24-.686.341-1.018" fill="#a84947" fill-rule="evenodd"/><path d="M197.2078 509.8112c.094-.133.084-.208.017-.352-.103-.122-.228-.205-.399-.183-.115.019-.233.062-.34.109-.034-.067-.066-.135-.102-.201.092-.082.103-.188.067-.3-.065-.15-.193-.219-.355-.193-.166-.274-.338-.542-.515-.809-.16-.24-.321-.48-.495-.71-.091-.121-.179-.245-.274-.364-.173-.212-.373-.433-.646-.507-.138-.007-.194.005-.315.073-.137.136-.196.273-.132.473.078.204.211.386.33.567.044.067.093.138.126.211-.046.233.01.478-.034.711-.151.791-.383 1.457-.648 2.215-.156.444-.322.884-.501 1.318-.373-.045-.685.091-.944.361-.211.233-.317.484-.366.787-.238-.128-.582-.173-.85-.18-.319.004-.592.063-.867.222-.283.203-.515.475-.561.837-.028.23-.038.455-.012.686.034.257.096.449.244.66.213.287.491.523.823.66-.172.081-.374.116-.517.242-.09.08-.149.215-.137.334.02.201.085.42.228.563.19.188.379.259.657.172.006.26.113.479.307.652.172.143.372.218.59.25.014.083.03.165.047.246-.047-.039-.121-.051-.181-.057-.217.01-.362.172-.459.359-.13.267-.231.574-.158.872.054.176.169.327.314.438.137.096.279.138.444.12.277-.05.5-.272.594-.532.281.364.651.668 1.064.871.26.121.536.212.82.254-.097.187-.194.379-.217.592-.032.363.294.655.607.772.343.113.651-.053.836-.331.101-.155.162-.313.141-.501-.029-.197-.138-.404-.269-.553.389-.077.752-.232 1.074-.462.181-.136.353-.295.48-.484.396-.003.783-.126 1.08-.401.28-.281.482-.872.159-1.193.437-.172.878-.522 1.168-.896.003.134.044.25.151.337.392.268.857-.089.995-.454.157-.415-.074-.852-.557-.738-.079.022-.149.058-.214.108.063-.209.102-.424.136-.639.046-.334-.032-.702-.203-.991-.067-.104-.141-.191-.245-.258.043-.213.055-.43.04-.646-.047-.682-.394-1.574-1.209-1.563-.199.015-.313.101-.488.152-.025-.292-.086-.578-.15-.863-.058-.252-.124-.502-.207-.747.161-.056.35-.086.465-.224.07-.124.064-.202-.002-.328-.073-.105-.16-.157-.287-.172-.143-.008-.299.036-.433.083-.038-.084-.075-.168-.113-.252.139-.067.282-.116.398-.223" fill="#fff" fill-rule="evenodd"/><path d="M196.5521 512.7112c0-1.243-.599-2.403-1.215-3.422-.152-.252-.573-.867-.776-1.061-.086-.082-.191.864-.206 1.031-.069.783-.435 1.783-.742 2.482-.141.321-.313.466-.255.731.023.103.161.275.233.406.115.212.21.505.186.816-.017.223.582-.145.638-.201.182-.182.316-.315.635-.45.378-1.525.308-1.879 1.502-.332" fill="#fbbf16" fill-rule="evenodd"/><path d="M193.4268 512.4512c.243-.564.659-1.63.858-2.371.165-.516.419-1.53.328-2.026-.003-.015-.033-.133.003-.125.061.012.125.096.159.142.258.348.485.706.722 1.063.054.081.018.099-.063.153-.105.069-.254.199-.342.265-.063.048-.136.149-.163.128-.14-.159-.187-.188-.273-.183-.088.004-.036.109-.003.151.044.057.063.103.098.158.013.02-.004.06-.039.092-.049.067-.093.111-.199.229-.083.094-.162.287.005.226.025-.014.079-.065.114-.091.107-.091.1-.122.214-.209.032-.027.119.105.156.21.021.058.085.172.087.218.001.022-.04.067-.054.083-.215.168-.363.381-.524.506-.053.042-.091-.046-.129-.098-.102-.14-.208-.003-.154.124.025.058.082.161.072.219-.011.06-.323.433-.357.475-.064.079-.082.247-.034.306.053.078.22-.168.267-.223.079-.09.141-.194.246-.251.016-.008.032.016.042.033.041.074.199.443.186.46-.028.034-.052.05-.082.085-.155.178-.255.24-.396.429-.064.087-.104.199-.052.263.056.07.117-.036.202-.147.137-.18.243-.291.423-.412.057-.039.116.118.151.159.009.01.059.048.096.033.037-.016.073-.07.065-.162-.006-.067-.033-.109-.061-.191.056-.059.378-.33.501-.457.039-.035.067.03.081.069.053.167.297.138.281-.004-.011-.091-.047-.181-.073-.256-.013-.049.152-.156.23-.218.041-.04.462-.315.479-.279.065.134.208.559.249.736.087.386.107.611.09.72-.018.117-.046.216-.026.28.056.179.257.177.358.194.146.024.223-.077.093-.829-.089-.439-.171-.811-.322-1.233-.006-.019-.011-.039-.017-.059-.009-.031.111-.073.153-.091.07-.028.153-.045.233-.079.055-.016.195-.042.173-.133-.036-.082-.101-.107-.178-.1-.135.011-.318.07-.421.12-.044.019-.051.049-.098-.051-.065-.14-.162-.366-.211-.466-.02-.042-.027-.072-.01-.089.097-.098.405-.186.489-.27.062-.068-.071-.175-.161-.175-.063.001-.291.072-.455.167-.034.019-.034.013-.066-.043-.062-.111-.161-.332-.204-.393-.054-.077-.064-.101-.017-.127.034-.015.06-.036.106-.08.025-.024-.004-.11-.067-.112-.045-.004-.111.017-.15.036-.027.012-.041-.008-.062-.045-.194-.335-.406-.659-.623-.986-.135-.204-.277-.413-.423-.608-.187-.247-.471-.68-.759-.782-.14-.049-.274.083-.232.226.073.248.443.675.482.863-.03.111-.03.19-.027.303.025.943-.403 1.895-.669 2.658-.166.479-.345.942-.54 1.412-.016.037-.131.301-.148.337zm2.087-1.868c-.015.023-.025.048-.01.076.071.167.083.173.131.346.017.046.02.126.054.161.014.016.023.013.042.005.056-.025.161-.111.283-.194.097-.066.207-.129.312-.184.026-.013.066-.026.03-.102-.067-.138-.134-.281-.233-.473-.024-.037-.044-.066-.105-.031-.151.088-.421.27-.504.396m-.348.284c-.18.119-.343.31-.5.494 0 .074.149.452.209.469.062.062.189-.084.235-.129.088-.075.192-.153.268-.241.013-.013.04-.069.04-.097.003-.133-.084-.302-.144-.414-.052-.097-.073-.09-.108-.082m.403-1.376c-.072.063-.407.298-.453.375-.016.027.093.208.111.244.035.049.074.133.106.191.015.027.035-.017.074-.044.124-.084.314-.228.474-.33.019-.012.069-.036.034-.097-.045-.077-.159-.262-.215-.365-.032-.057-.089.001-.131.026m-2.366 3.405c.052-.057.122-.177.118-.219-.01-.124-.269-.105-.347-.085-.03.008-.158.345-.16.36-.009.086.055.129.13.104.115-.037.193-.081.259-.16m6.4431 3.7599c-.147.102-.273.302-.298.445-.019.105-.032.287.09.322.078.022.165.015.244-.002.124-.028.219-.116.291-.223.057-.086.124-.206.131-.313.007-.096-.041-.234-.142-.268-.118-.039-.212-.034-.316.039m-1.704-2.861c-.082.061-.137.179-.077.272.021.034.046.061.075.083.05.038.115.057.178.051.06-.005.11-.033.145-.083.032-.046.067-.121.012-.165-.037-.03-.099-.05-.127-.08-.031-.034-.037-.087-.084-.104-.047-.019-.084-.003-.122.026m-3.451 7.063c-.078.002-.139.149-.157.205-.045.144-.005.308.1.417.083.086.349.223.416.047.018-.046.018-.106.001-.153-.044-.117-.095-.232-.152-.343-.04-.077-.11-.175-.208-.173m-.103-.215c-.052.015-.093.047-.118.094-.09.175-.189.347-.217.543-.005.039-.004.079.003.117.031.154.13.225.243.323.05.044.113.072.173.102.07.035.144.043.221.037.134-.012.255-.075.339-.182.072-.09.142-.202.164-.318.033-.171-.079-.367-.171-.499-.055-.08-.147-.166-.24-.199-.105-.037-.287-.052-.397-.018m-3.874-4.259c-.158.012-.29.033-.261.214.009.058.056.135.107.163.014.008.038.012.055.004.102-.051.167-.243.138-.348-.004-.016-.021-.035-.039-.033m.017-.283c-.203.027-.449.094-.505.317-.024.094.01.214.047.3.062.14.196.257.344.287.045.01.096.009.144.001.102-.016.205-.082.258-.172.1-.169.125-.312.141-.51.004-.047.041-.095.024-.141-.024-.063-.078-.076-.143-.078-.104-.005-.21-.018-.31-.004m5.269-.731c.035.042.005.094.035.113.042.025.107-.008.181.002.118.014.177.128.034.307-.136.169-.326.138-.453.019-.171-.159-.089-.359-.031-.405.052-.041.16-.128.234-.036m-3.26-.94c.057.147.128.346.291.386.102.024.187-.053.209-.156.043-.203-.115-.429-.304-.492-.145-.049-.243.143-.196.262m-1.105 4.083c-.104-.005-.218.156-.258.237-.109.219-.237.577-.107.807.135.24.381.416.645.24.163-.109.277-.302.287-.491.01-.19-.068-.376-.242-.469-.05-.027-.103-.013-.154.006-.045.017-.126.121-.173.106-.015-.004-.008-.033-.003-.052.013-.042.038-.082.058-.124.031-.065.053-.116.041-.188-.008-.048-.05-.07-.094-.072m2.848.231c.196.076.401.069.445.309.042.234-.168.432-.344.54-.251.153-.651-.039-.673-.335-.012-.16.031-.353.174-.445.169-.108.228-.135.398-.069" fill="#bd8800" fill-rule="evenodd"/><path d="M194.4202 513.7483c-.072-.006-.352.115-.373.188-.043.147.16.151.268.129.073-.015.257-.304.105-.317m2.171-.717c.13.13.094.347.193.334.143-.02.173-.152.16-.264-.008-.065-.107-.182-.163-.201-.101-.035-.235.087-.19.131m1.598 2.875c-.052.049-.088.134-.128.186-.043.057.067.065.095.065.065 0 .14-.018.19-.049.041-.027.122-.191.055-.242-.079-.06-.15-.019-.212.04m-3.362-2.601c-.204-.101-.435-.04-.517-.001-.102.031-.189.081-.274.166-.014.014-.025.03-.035.046-.019.025-.036.051-.05.078-.008.008-.016.016-.025.024-.029.022-.045-.01-.039-.036.027-.115.067-.271.068-.389.002-.418-.221-.739-.378-.902-.191-.174-.709-.231-.818-.214-.483.077-.819.531-.86 1.005-.015.17.065.351.235.202.078-.068.115-.123.159-.216.097-.203.158-.443.409-.461.16-.011.533.16.644.253.15.127.359.384.288.608-.107.335-.284.52-.225.877.068.41.298-.01.355.012.362.134.423-.017.739-.119.151-.106.27-.265.27-.459.001-.181.385-.088.433.056.076.226.044.454-.019.536-.036.045-.066.081-.086.067-.04-.029-.031-.025-.041-.036-.096-.102-.312-.087-.34.052-.005.028.004.043.043.082.012.011.064.029.052.048-.012.021-.088.044-.124.047-.084.007-.159.069-.156.183.003.095.158.121.266.102.065-.013.126-.025.172-.035.083-.017.181.044.254.082.306.163.74.274 1.083.249.43-.032 1.071-.196 1.169-.693.021-.108-.019-.344-.13-.524-.17-.273-.526-.216-.67-.18-.286.073-.511.302-.385.625.049.128.484-.105.511-.181.008-.021-.011-.048.001-.068.128-.227.5.36.294.518-.288.223-.656.225-1.01.199-.111-.008-.515-.071-.65-.206-.106-.107-.061-.115-.003-.19.247-.321.206-.634.032-.947-.161-.292-.407-.326-.642-.26m.028-.159c.1.027.218-.03.245-.052.278-.229.307-.464.37-1.002.039-.328.133-.254.299-.068.405.455.283.678.569.914.204.17.053.525.242.623.282.148.518-.127.753-.241.475-.231.895-.263 1.158.294.11.232.323 1.024.042 1.172-.342.18-1.024.324-1.178.745-.123.334-.299.861.188.977.349.084.476.129.811-.069.188-.11.386-.391.378-.639-.008-.257-.347-.34-.574-.21-.141.081-.185.174-.285.301-.046.057-.112.151-.198.129-.091-.023-.157-.196-.135-.277.022-.084.142-.131.218-.168.334-.163.537-.389.951-.359.403.03.449.675.385.878-.151.478-.292.82-.69 1.142-.196.158-.536.35-.77.446-.219.09-.566.127-.569.064-.019-.361-.239-.813-.44-1.098-.652-.921-1.669-.529-2.501-.109-.299.151-.644.546-.78.769-.166.271-.214.609.018.842.122.123.304.218.443.283.299.141.585.133.889.036.392-.126.647-.32.763-.543.042-.08.135-.263.167-.443.046-.267.019-.44-.329-.474-.195-.02-.498.062-.574.268-.022.06-.134.38.002.381.071 0 .363-.299.43-.148.075.169-.06.352-.171.465-.321.328-1.134.172-1.347-.21-.326-.585.545-.896.977-1.035.228-.073.458-.14.698-.167.253-.03.52.072.734.237.279.215.567.681.599 1.033.012.139.009.324-.017.577-.018.176-.033.343-.108.506-.04.089-.082.271-.137.239-.056-.034-.162-.126-.216-.196-.072-.094-.189-.263-.273-.114-.042.074-.033.137.018.223.068.115.158.186.264.267.034.027.09.051.084.065-.118.276-.647.551-.912.647-.842.305-1.701.171-2.409-.395-.308-.245-.59-.566-.754-.928-.111-.246-.174-.52-.177-.782 0-.033-.011-.05.022-.06.067-.021.221-.06.43-.188.369-.225.274-.489.112-.369-.032.014-.328.145-.463.172-.054.01-.069.007-.066-.044.021-.424.165-.9.359-1.272.047-.089.22-.377.222-.321.014.309.215.543.53.575.445.045.747.072 1.13-.202.215-.154.361-.327.436-.598.062-.222.049-.413-.252-.452-.187-.024-.389-.013-.519.037-.155.059-.39-.041-.428.184-.129.76.787-.261.879.166.025.115-.025.196-.099.279-.264.299-1.074.296-1.34.013-.025-.028-.126-.136-.043-.326.043-.1.233-.183.063-.27-.143-.075-.302.133-.388.216-.426.412-.619 1.085-.728 1.655-.023.116-.068.329-.072.368-.004.031-.238-.033-.334-.064-.243-.081-.352-.287-.255-.531.142-.355.438-.635.385-1.05-.06-.467-.592-.596-.952-.759-.507-.23-.737-.62-.725-1.168.009-.411.65-.468.959-.439.515.047 1.481.473 1.129 1.156-.076.148-.364.315-.525.226-.047-.026-.288-.224-.253-.297.074-.157.381-.196.509-.239.139-.048-.118-.192-.149-.255-.021-.042-.03-.09-.071-.111-.193-.099-.511.035-.584.239-.139.387-.038.864.345 1.079.146.082.245.004.381-.073.383-.218.867-.637.789-1.131-.012-.072-.044-.161-.089-.248-.146-.282-.518-.5-.791-.647-.731-.289-1.712-.19-1.933.684-.048.359-.055.712.078 1.055.205.373.562.679.974.807.201.097.449.202.534.407.042.101.035.151-.016.24-.192.334-.4.68-.241 1.077.145.291.43.412.741.435.079-.001.078.006.081.079.026.203.072.398.119.596.237.691.682 1.238 1.323 1.6.567.308 1.265.404 1.907.271.577-.119 1.144-.429 1.46-.941.142.002.278.003.417-.027.433-.092.804-.348.871-.763.026-.158.018-.385-.146-.472-.25-.133-.544.025-.531.314.003.063.007.107.058.147.063.05.113-.032.179-.035.023-.001.045.054.046.072.005.231-.196.357-.389.438-.14.058-.426.095-.382.028.034-.052.08-.155.102-.225.063-.193.116-.375.137-.578.01-.101.02-.202.048-.3.011-.036.056-.032.092-.032.62.002 1.067-.217 1.564-.655.544-.48.666-1 .761-1.591.054-.33-.084-.908-.383-1.053-.065-.052-.075-.081-.068-.166.134-.609.016-1.367-.44-1.825-.266-.183-.552-.231-.84-.055-.085.051-.383.099-.452.07-.129-.053-.18-.167-.431-.207-.132-.041-.317.124-.41-.086-.075-.14-.062-.718-.298-.719-.224 0-.284-.303-.599-.398-.065-.02-.161-.014-.204.041-.145.363-.108.684-.168.997-.043.136-.081.259-.177.367-.08.087-.342.289-.089.356" fill="#c4122e" fill-rule="evenodd"/><path d="M171.8259 504.6834l-49.572.004-.325.033c-.599.108-1.079.322-1.558.7l-.228.207c-.456.479-.729.983-.879 1.628-.104.578-.082 1.128.108 1.687-.074-.119-.151-.233-.232-.347-.451-.574-.994-.928-1.674-1.179-1.043-.348-2.183-.387-3.227-.021l-.22.088c-.736.333-1.336.833-1.812 1.486-.172.174-.328.366-.473.563-.932 1.305-1.296 2.885-1.436 4.458-.101 1.35-.068 2.712.142 4.05.299 1.727.951 3.537 2.337 4.69.509.406 1.056.685 1.697.813.838.154 1.796.117 2.55-.314.34.457.885.5 1.409.451.228-.035.397-.086.605-.184l.2-.147.204-.272.022-.108c.203-.099.307-.263.436-.438l.059-.292c-.003-.366-.005-.732-.005-1.098.267.486.571.908.961 1.304l.284.252c.385.296.747.49 1.211.635.322.078.617.116.949.11.512-.03.951-.156 1.402-.397.534-.308.971-.721 1.332-1.218.114-.115.22-.238.321-.364-.104.441-.097.846.053 1.276l.127.22.279.25.323.074c1.296-.001 2.591-.001 3.886 0l.349-.109c.149-.158.306-.297.37-.511l.062-.018.256-.249.116-.213.089-.318c.043-.336.031-.63-.049-.959l-.16-.351-.216-.234-.283-.117-.138-.021c-.007-.713-.01-1.426-.01-2.137.447.28.957.336 1.467.245l.306-.094c.333-.151.55-.319.779-.605l.117-.19c.061-.048.12-.099.173-.155v3.241c-.092.099-.155.208-.199.337l-.107.041-.225.242-.158.356c-.087.378-.089.716-.004 1.095l.058.168.114.207.246.242.332.107c.896-.001 1.792.003 2.688-.001.734-.003 1.429-.068 2.123-.323.138-.054.27-.114.402-.179.608-.326 1.116-.787 1.519-1.344 1.593-1.667 1.877-4.157 1.601-6.353-.113-.793-.318-1.532-.678-2.25-.232-.437-.498-.816-.836-1.178-.194-.195-.393-.37-.615-.533h4.699c-.128.143-.231.307-.365.443-.567.598-.925 1.304-1.009 2.13-.035.482.035.909.199 1.364.169.42.383.768.69 1.102.299.298.665.566 1.077.682l-.015.021c-.508.543-.897 1.126-1.134 1.835-.286.922-.283 1.918.125 2.806.266.543.612.986 1.088 1.361.389.289.786.478 1.255.6.455.103.872.114 1.332.04.386-.077.74-.207 1.103-.353l.189.109c.448.163.922.182 1.383.067l.187-.076.246-.177.117-.2.043.079.324.257.339.071h5.921l.34-.07.323-.257.165-.309.292-.232.159-.288c.049-.192.076-.341.077-.538-.006-.143-.006-.287-.006-.431.423.76.961 1.422 1.717 1.869.355.19.694.308 1.09.378.396.052.749.041 1.141-.035.396-.095.728-.236 1.074-.451.427-.292.786-.651 1.089-1.069l.037-.038c-.042.346.017.652.154.97l.142.207.252.204.307.09h2.605c.505-.017.932-.205 1.205-.645l.173.328.263.23.318.087c1.009-.001 2.017-.001 3.026 0l.359-.148.12-.144.145.154.342.138h7.49l.208-.03.224-.073.218-.134.179-.185.142-.273.135-.083.179-.185.12-.206c.062-.184.094-.325.106-.517.015-1.066.044-2.132.059-3.197-.002-.151-.024-.274-.058-.422l-.106-.228-.209-.235-.301-.157c-.339-.046-.668-.041-1.009-.034v-3.526c.228 0 .437-.004.665-.036l.301-.156c.119-.134.273-.286.316-.468l.14-.073.209-.235.106-.228c.035-.148.056-.271.059-.422-.017-1.191-.06-2.381-.078-3.571-.004-.168-.022-.311-.06-.474l-.068-.171-.115-.177-.156-.153-.176-.11c-.165-.065-.297-.101-.472-.125l-.274-.012h-7.256l-.318.074c-.188.157-.351.276-.44.513.02-.792-.25-1.502-.735-2.119l-.207-.228c-.479-.456-.984-.729-1.628-.879-.216-.038-.419-.06-.638-.065" fill="#fff" fill-rule="evenodd"/><path d="M137.4495 512.9312c.012-.209-.015-.3.215-.322 1.078-.033 1.164 1.204 1.236 2.008.089 1 .101 2.009.093 3.013-.005.713-.028 1.426-.116 2.135-.069.563-.189 1.435-.814 1.672-.553.154-.618-.007-.618-.482-.001-2.634-.001-5.267.001-7.901 0-.034.002-.089.003-.123m-2.96-1.349c-.164-.003-.188.966 0 .986.148.022.425.028.537.141.067.09.067.242.069.348 0 2.677-.001 5.354-.001 8.032-.019.249-.051.328-.303.384-.101.016-.202.032-.302.048-.197.014-.211.971 0 .977.882 0 1.763.004 2.645-.001 1.001-.005 1.915-.152 2.694-.828 1.598-1.389 1.888-3.837 1.653-5.819-.154-1.297-.634-2.609-1.685-3.445-.738-.586-1.646-.823-2.578-.823zm-11.2484 10.0673c-.503-.004-.645-.791-.706-1.163-.115-.714-.144-1.444-.163-2.167-.03-1.126-.029-2.258.033-3.384.028-.512.066-1.028.173-1.53.073-.347.309-1.146.839-.907.351.157.471.793.526 1.124.109.652.141 1.317.161 1.977.036 1.138.034 2.282-.022 3.419-.026.541-.062 1.085-.166 1.617-.065.333-.227 1.018-.675 1.014m3.432-4.611c-.001-1.717-.439-3.676-1.728-4.906-.389-.37-.89-.64-1.427-.708-1.733-.218-2.873 1.543-3.335 2.977-.499 1.551-.513 3.354-.108 4.912.381 1.467 1.426 3.346 3.164 3.346 1.621 0 2.647-1.658 3.071-3.026.26-.837.363-1.719.363-2.595m6.004-5.4559c.597-.019.723.302.563.723-.246.646-.487 1.481-.527 1.608-.099.313-.13.803.302 1.295.384.438.487.769.537 1.202.167 1.45-2.194 1.696-2.37-.3-.067-.762.174-1.832.6-2.485.205-.315.69-.927.112-1.128-.457-.159-1.603-.285-1.652.411-.001 2.7-.034 5.4-.002 8.1.001.124.041.381.189.41.188.038.329.059.518.088.204.023.226.993.015.992h-3.679c-.224.014-.19-.993 0-.978.102-.016.206-.019.304-.048.241-.07.301-.119.301-.383.001-2.678.001-5.355.002-8.032-.003-.107-.003-.259-.069-.348-.112-.113-.389-.119-.538-.142-.174-.037-.165-.972 0-.985 1.793 0 3.603.058 5.394 0m-14.0101 1.8308c.199-.001.216-.203.216-.305-.007-1.208-.082-2.502-.827-3.5-.689-.923-2.028-1.224-3.139-1.127-1.183.104-2.104.783-2.723 1.772-1.018 1.626-1.199 3.731-1.16 5.601.04 1.947.406 4.137 1.671 5.696.449.554 1.054 1.01 1.753 1.186.559.141 1.384.152 1.923-.065.234-.094.436-.236.649-.37.034-.021.081-.012.119 0 .159.05.383.289.527.49.124.191 1.05.153 1.041-.086-.014-1.565.007-2.841.02-4.385.001-.089.059-.435-.255-.439h-.705c-.269.02-.292.365-.323.492-.216.89-.454 1.69-.9 2.484-.173.308-.472.782-.868.816-.679.058-.923-1.046-1.008-1.507-.449-2.406-.41-5.167-.162-7.62.078-.765.235-2.6 1.359-2.703.605-.056 1.064.293 1.344.803.401.732.449 1.592.454 2.416.001.118.004.355.264.351z" fill="#c4122e" fill-rule="evenodd"/><path d="M134.9465 511.0419c-.069-.001-.113.169-.127.368.8.001 1.6-.001 2.4 0 1.06.001 2.088.305 2.884 1.03 1.109 1.012 1.51 2.519 1.602 3.968.08 1.26-.071 2.424-.512 3.606.796-1.381.926-3.18.745-4.705-.154-1.297-.634-2.608-1.685-3.444-.738-.586-1.646-.823-2.578-.823zm3.445 9.886c-.434.094-.488-.079-.488-.513-.002-2.538-.001-5.077 0-7.615-.089-.014-.184-.029-.273-.012-.003.015-.003.031-.004.046-.003.074-.007.148-.008.221 0 2.551-.001 5.102 0 7.654 0 .133-.002.266.004.399.005.063.007.135.039.191.025.03.09.021.124.019.089-.012.179-.027.262-.062.06-.03.109-.062.161-.104.075-.069.132-.14.183-.224m-16.3524-9.3782c.413-.226.855-.339 1.328-.312 1.492.085 2.503 1.497 2.978 2.786.353.961.499 1.994.5 3.015.002 1.104-.16 2.256-.602 3.276.512-.906.817-2.017.86-3.053.02-.497.028-.994 0-1.49-.085-1.523-.591-3.121-1.701-4.18-.389-.371-.89-.64-1.427-.708-.762-.096-1.41.192-1.936.666m1.57 9.549c-.431-.09-.56-.804-.616-1.152-.116-.715-.145-1.445-.164-2.168-.03-1.126-.029-2.258.033-3.384.028-.511.067-1.028.173-1.53.011-.049.024-.107.041-.169-.061.055-.107.132-.145.2-.157.312-.216.665-.264 1.008-.068.518-.093 1.044-.114 1.567-.041 1.083-.033 2.167.004 3.25.023.633.061 1.267.175 1.891.048.26.14.689.382.832.165.096.31-.017.399-.154.039-.06.069-.125.096-.191m7.0896-8.4957c-.002 2.622-.032 5.243-.001 7.864.001.125.04.382.189.412.187.037.328.057.518.086.204.024.225.994.015.992h-.139c-.006-.112-.018-.226-.05-.334-.021-.071-.053-.15-.104-.205-.089-.095-.196-.089-.319-.108-.095-.015-.19-.025-.284-.045-.111-.025-.108-.165-.111-.26-.029-2.696-.005-5.391.002-8.086 0-.173.139-.267.284-.316m2.436-1.541c.376-.015.565.084.613.288.052.217-.103.559-.177.762-.197.566-.367 1.155-.401 1.261-.098.312-.13.803.302 1.295.384.438.488.769.538 1.201.043.371-.08.663-.289.859.021-.296-.012-.583-.108-.865-.099-.291-.268-.534-.467-.766-.131-.154-.234-.321-.287-.519-.056-.21-.04-.421.023-.627.159-.512.311-1.022.497-1.524.104-.28.164-.546-.049-.804-.289-.245-.646-.192-.993-.183-.56.012-1.119.013-1.679.009-1.014-.008-2.027-.032-3.041-.038.012-.196.054-.364.124-.369 1.793 0 3.602.079 5.394.02m-14.2476 11.2839c.165-.032.291-.093.287-.181-.005-.52-.005-1.01-.004-1.488.003-.904.017-1.807.006-2.71-.002-.159-.005-.311-.009-.444-.004-.133-.088-.181-.228-.183h-.705c-.203.016-.266.217-.298.369.184 0 .369-.003.553 0 .103 0 .203.031.28.1.048.042.088.102.109.162.032.093.04.186.036.283-.006.118-.006.236-.007.355-.012 1.245-.026 2.491-.02 3.737m-2.71-1.218c-.695.102-.952-1.014-1.043-1.502-.448-2.406-.409-5.168-.16-7.621.038-.383.097-1.035.288-1.604-.345.52-.456 1.128-.529 1.74-.249 2.094-.321 4.283-.111 6.386.059.585.134 1.173.253 1.749.136.656.554 1.839 1.302.852m-2.735-12.356c1.394-.824 3.734-.609 4.752.732.53.698.742 1.584.816 2.443.027.309.015.618.042.926.048.005.104-.002.123-.006.151-.033.165-.207.165-.299-.007-1.209-.082-2.502-.827-3.501-.689-.922-2.028-1.223-3.139-1.126-.754.066-1.401.366-1.932.831m69.9322 3.7009h.086c.217.001.203-.228.202-.342-.019-1.346-.052-1.881-.071-3.228-.022-.562.07-.731-.55-.731h-7.159c-.107-.003-.164.164-.18.368h6.658c.207 0 .42-.015.62.043.122.035.229.121.273.242.056.15.047.311.049.468.001.049.003.098.004.147.015 1.011.05 2.022.068 3.033m-3.991 2.188v-4.628h-.026l-.1.013-.088.02c-.058.027-.061.129-.066.183-.002.042-.003.086-.004.129-.001 1.525-.001 3.051-.001 4.576.16-.066.304-.155.436-.266l.078-.073c.019-.02.038-.041.056-.063-.089.041-.184.077-.285.109m2.199 3.305h.078c.218-.013.206-.186.206-.279v-4.719c0-.093.012-.267-.206-.279h-.615c-.284.005-.303.103-.312.155-.011.071-.022.142-.034.213.171 0 .342-.005.513 0 .235.007.37.179.37.411.001 1.5 0 2.999 0 4.498m-.761 2.668c-.033.016-.067.032-.102.046-.31.11-.782.166-1.109.111-.287-.059-.225-.42-.227-.656v-3.2c-.089-.06-.184-.111-.285-.153v3.894c0 .122-.011.244.005.366.009.048.016.091.063.114.06.018.128.02.191.023.266.008.538-.026.794-.103.118-.038.227-.102.332-.168l.137-.098c.067-.055.131-.11.195-.17l.006-.006m2.389 1.319c.211-.029.276-.167.281-.386.02-1.347.039-1.77.058-3.117.002-.113.015-.342-.202-.342-.362.001-.266.012-.629 0-.248-.008-.289.168-.308.252-.009.038-.018.077-.028.116.148 0 .297-.001.445 0 .042 0 .084 0 .126.004.079.007.157.05.21.11.078.087.1.21.102.324.002.068-.001.135-.002.203zm-8.7437.0047c.062 0 .12.001.187-.005.06-.005.099-.041.099-.088.001-.2.008-.355-.006-.535-.016-.19-.062-.337-.137-.346-.207-.023-.479-.052-.645-.203-.053-.048-.073-.101-.096-.168-.054-.185-.064-.374-.069-.564 0-2.87-.001-5.739-.001-8.608 0-.192.069-.578-.206-.574-.419-.001-.4-.001-.818 0-.243-.002-.333.225-.392.368.253 0 .506-.002.759 0 .109.001.203.037.275.122.041.049.071.117.085.18.031.149.015.296.013.446v8.338c0 .202-.034.719.111.875.108.086.257.111.391.133.066.011.134.017.2.03.053.01.11.062.139.107.025.038.043.075.057.119.036.117.052.25.054.373m-5.188-4.577c0-1.475 0-2.949.001-4.424.001-.056.003-.114.006-.171-.06.017-.117.041-.165.08-.045.045-.057.093-.075.152-.053.211-.051.431-.051.648v4.364c.094-.216.189-.433.284-.649m.694-5.361c.039-.006.078-.012.117-.019.218-.055.23-.95 0-.959h-2.766c-.12.006-.188.174-.203.368h2.526c.084.014.137.037.193.103.039.046.067.106.085.162.035.112.047.229.048.345m-3.1042 3.9065c-.042-1.041-.278-2.082-.753-3.012-.561-1.096-1.521-2.158-2.859-2.039-.463.041-.872.218-1.231.481-.052.037-.175.136-.241.197.179-.092.354-.172.548-.226.316-.089.647-.115.973-.074.411.052.789.214 1.129.447.3.206.565.471.791.756.447.565.771 1.224.99 1.908.192.6.302 1.227.352 1.854.058.736.043 1.482-.059 2.213-.076.55-.207 1.095-.401 1.616-.031.084-.066.166-.101.248.545-.955.814-2.069.861-3.17.018-.399.017-.8.001-1.199m-3.505 5.174c-.428-.087-.561-.815-.616-1.154-.108-.666-.139-1.346-.159-2.02-.035-1.134-.035-2.273.022-3.405.026-.531.063-1.065.166-1.588.015-.077.031-.156.052-.235-.003.002-.006.005-.008.007-.171.18-.247.422-.302.659-.1.447-.144.903-.174 1.36-.068 1.102-.076 2.209-.052 3.313.016.706.036 1.413.124 2.115.038.288.081.578.171.856.056.16.131.345.282.437.044.022.077.03.126.032.024-.001.044-.004.068-.01.109-.037.173-.124.23-.219.027-.048.049-.097.07-.148m-4.7162.8575h.096c.241 0 .189-.367.188-.471-.002-.592.004-1.152.016-1.712.013-.572.02-1.075.019-1.711 0-.099-.08-.135-.173-.135-.277-.001-.342 0-.614 0-.154 0-.161.177-.18.289l-.013.079h.213c.065 0 .13-.003.194.003.056.005.114.029.16.06.041.029.082.074.104.12.046.097.055.183.057.29l-.002.073c-.044 1.027-.067 2.053-.065 3.081zm-1.61-1.815v-7.377c-.055.007-.11.015-.165.028-.017.005-.05.014-.064.026-.048.117-.051.255-.054.381l-.002 7.548c.116-.195.208-.397.285-.606m-1.175-9.101h-1.895c-.077-.003-.123.168-.137.368h3.48c.159.02.215.136.261.278.027.115.04.233.043.351.047-.004.095-.008.143-.012.194-.011.182-.993 0-.985zm-1.805 8.594c-.162-.452-.252-.934-.332-1.418-.019-.112-.026-.289-.18-.289-.272 0-.337-.001-.614 0-.2 0-.212.188-.204.367v.001h.189c.075 0 .15-.002.225.003.06.015.095.029.146.064.088.084.121.18.141.299.007.051.015.101.024.152.114.666.255 1.346.605 1.933zm-5.7241-9.075c-.872.001-1.91.517-2.234.843.305-.174.579-.275.77-.33.396-.114.758-.148 1.169-.143.581.008 1.122.127 1.666.319.483.212.83.434 1.214.797.524.572.821 1.256.875 2.034.024.337.004.676-.057 1.008-.044.245-.108.487-.199.72.14-.234.262-.48.351-.752.232-.705.271-1.471.074-2.188-.474-1.598-1.941-2.309-3.629-2.308m-.386 4.667c.189-.201.303-.461.303-.737 0-.396-.219-.797-.729-1.089-.397-.228-.644-.609-.587-1.001-.072.073-.143.18-.188.273-.146.3-.139.541.056.819.099.126.212.219.35.301.314.185.573.426.72.767.082.211.114.443.075.667m3.277 6.843c.147-.012.263-.044.278-.104.026-.108-.027-1.719-.016-3.056-.004-.087-.006-.173.002-.26.001-.001.001-.002.001-.002.003-.186.007-.363.013-.527.005-.121-.014-.192-.182-.197-.379-.001-.409-.001-.788 0-.168.006-.189.126-.203.2-.01.053-.021.109-.032.168h.532c.151.008.218.015.329.122.052.097.055.14.06.251-.033.933-.016 1.868-.002 2.802.003.201.006.402.008.603m-2.466-.929c-.685.237-1.296-.23-1.113-.971-.176.242-.353.576-.312.884.025.183.15.381.318.465.18.09.402.064.587.002.207-.068.382-.215.52-.38" fill="#bd8800" fill-rule="evenodd"/><path d="M126.1987 507.5334c-.043-.3-.161-.532-.354-.697-.192-.165-.441-.247-.746-.247-.365 0-.66.119-.884.357-.224.239-.336.552-.336.941 0 .405.114.728.342.968.228.241.533.362.915.362.302 0 .55-.08.742-.239.191-.16.301-.377.328-.654h-.6c-.03.121-.085.211-.168.271-.081.061-.189.091-.322.091-.179 0-.321-.071-.424-.212-.104-.141-.156-.334-.156-.58 0-.244.049-.434.147-.569.099-.135.237-.203.416-.203.143 0 .259.036.345.106.087.07.14.172.162.305zm4.1241-.8753v2.497h1.195c.317 0 .55-.056.7-.169.15-.113.224-.288.224-.526 0-.14-.031-.26-.096-.359-.063-.101-.162-.185-.297-.252.109-.043.187-.099.232-.171.045-.072.071-.198.078-.379.004-.051.007-.119.01-.205.008-.201.043-.318.104-.35v-.086h-.67c-.033.088-.052.209-.056.363-.004.153-.009.25-.013.29-.011.097-.043.168-.099.213-.055.046-.138.068-.249.068h-.427v-.934zm.636 1.428h.476c.129 0 .224.024.284.071.061.048.091.124.091.227 0 .092-.03.16-.088.204-.059.045-.149.067-.27.067h-.493zm5.6718-1.428v2.497h1.898v-.512h-1.259v-.441h1.15v-.5h-1.15v-.533h1.299v-.511zm6.7284 2.4974h.699l.881-2.497h-.686l-.153.458h-.834l-.143-.458h-.663zm.059-1.522h.546l-.278.861zm5.5231-.9754v2.497h.88l.329-1.215c.03-.108.056-.212.08-.313s.044-.2.062-.296c.022.102.046.209.073.32.027.111.059.231.094.358l.31 1.146h.878v-2.497h-.583v1.107c0 .078.002.188.006.328.004.141.009.304.018.488l-.48-1.923h-.635l-.469 1.923c.008-.222.014-.421.019-.598.004-.177.006-.315.006-.415v-.91zm6.9571 0v2.497h1.898v-.512h-1.259v-.441h1.15v-.5h-1.15v-.533h1.299v-.511zm6.0723 0v2.497h1.195c.317 0 .55-.056.7-.169.15-.113.224-.288.224-.526 0-.14-.031-.26-.096-.359-.063-.101-.162-.185-.297-.252.109-.043.187-.099.232-.171.045-.072.071-.198.078-.379.004-.051.007-.119.011-.205.007-.201.042-.318.103-.35v-.086h-.67c-.033.088-.052.209-.056.363-.005.153-.009.25-.013.29-.011.097-.044.168-.099.213-.055.046-.138.068-.249.068h-.427v-.934zm.636 1.428h.476c.129 0 .224.024.284.071.061.048.091.124.091.227 0 .092-.03.16-.088.204-.059.045-.149.067-.27.067h-.493zm6.2551-1.428v.941l-.863 1.556h.717l.46-1.007.457 1.007h.723l-.872-1.556v-.941z" fill="#c4122e" fill-rule="evenodd"/><path d="M171.8163 505.4682c1.341 0 2.435 1.094 2.435 2.435s-1.094 2.435-2.435 2.435h-49.398c-1.341 0-2.435-1.094-2.435-2.435s1.094-2.435 2.435-2.435zm0 .276c1.189 0 2.158.97 2.158 2.159 0 1.188-.969 2.158-2.158 2.158h-49.398c-1.189 0-2.159-.97-2.159-2.158 0-1.189.97-2.159 2.159-2.159z" fill="#bd8800" fill-rule="evenodd"/><path d="M178.9259 515.2018c0-1.609 0-3.218.001-4.827.005-.176-.004-.399.185-.474 1.235-.339 2.523 1.372 2.806 2.322.061.214.102.333.159.548.018.084.049.262.297.243h.629c.217.001.203-.229.202-.342-.019-1.347-.052-1.882-.071-3.228-.021-.562.07-.732-.55-.732h-7.159c-.275-.006-.218 1.104 0 1.121.2.029.488.04.648.173.122.115.125.357.127.512 0 3.409-.001 6.818-.001 10.227-.017.454-.32.698-.774.751-.183-.019-.229.975 0 1.002h7.284c.247-.015.32-.157.325-.391.02-1.346.039-1.769.059-3.116.001-.114.014-.343-.202-.342h-.629c-.249-.02-.29.168-.309.252-.195.875-.818 1.956-1.691 2.32-.31.109-.782.165-1.109.111-.287-.06-.225-.42-.227-.657v-4.141c.698.22 1.139.646 1.296 1.477.018.114.036.227.055.341.008.052.028.149.311.155h.615c.218-.013.206-.186.206-.279v-4.719c0-.093.012-.267-.206-.279h-.615c-.283.005-.303.103-.311.154-.019.114-.037.227-.055.341-.157.831-.598 1.257-1.296 1.477m-10.1046 3.6516c0-1.785 0-3.571.001-5.356.005-.212.015-.44.095-.64.048-.1.113-.152.212-.199.16-.068.332-.087.503-.117.218-.055.23-.95 0-.959h-2.766c-.276.013-.276.888 0 .969.197.032.443.046.609.177.052.046.074.086.099.15.074.223.079.467.081.7-.001 2.514-.001 5.028-.002 7.543-.006.068-.013.201-.078.245-.041.024-.085.039-.131.053-.2.053-.408.068-.614.09-.242.02-.276.97 0 .989h2.48c.377 0 .527-.183.643-.45l2.223-5.087c-.001 1.21-.001 2.419-.001 3.629-.005.203-.014.414-.078.608-.04.102-.085.146-.18.198-.167.079-.352.097-.531.129-.196.002-.241.971 0 .973h2.767c.195-.014.183-.983 0-.974-.206-.036-.478-.055-.646-.202-.051-.051-.073-.102-.096-.17-.053-.184-.064-.373-.069-.563 0-2.87-.001-5.739-.001-8.609 0-.191.069-.578-.207-.573h-.817c-.267-.003-.349.271-.409.407-1.029 2.346-2.058 4.693-3.087 7.039m-5.8251 2.7961c-.5.004-.647-.801-.706-1.163-.108-.666-.139-1.345-.159-2.02-.035-1.133-.035-2.272.022-3.405.026-.531.063-1.065.166-1.588.061-.312.151-.659.38-.892.183-.186.471-.153.632.042.229.278.309.651.367.999.117.698.146 1.413.165 2.12.031 1.134.028 2.272-.033 3.405-.028.521-.066 1.046-.173 1.557-.068.325-.228.941-.661.945m3.432-4.61c-.004-1.227-.208-2.484-.771-3.584-.56-1.097-1.52-2.158-2.858-2.04-1.548.138-2.505 1.793-2.905 3.123-.388 1.293-.433 2.732-.217 4.057.201 1.232.727 2.563 1.672 3.412.941.846 2.281.871 3.237.045.377-.326.683-.737.934-1.166.671-1.148.912-2.532.908-3.847m-11.0234-5.4569h-1.894c-.184-.008-.195.974 0 .984.158.016.318.023.473.06.071.024.137.044.172.114.064.146.069.327.074.484v8.05c-.626-.708-.811-1.609-.962-2.516-.019-.112-.026-.29-.18-.29h-.614c-.2.001-.211.189-.204.368.047 1.087.07 2.084.065 3.191 0 .103-.052.471.189.471h5.762c.242 0 .189-.368.189-.471-.005-1.107.018-2.104.065-3.191.007-.179-.004-.367-.204-.368h-.614c-.154 0-.161.178-.18.29-.151.907-.336 1.808-.962 2.516v-8.05c.005-.157.01-.338.074-.484.035-.07.101-.09.172-.114.155-.037.315-.044.473-.06.195-.01.184-.992 0-.984zm-7.5289-.481c-1.784.001-3.207 1.385-3.207 2.866 0 .911.696 2.145 1.826 2.198.714.033 1.298-.51 1.298-1.134 0-.396-.219-.798-.729-1.09-.43-.247-.685-.675-.565-1.101.389-1.386 2.475-1.32 3.209.044.484.899-.449 1.844-1.073 2.46-.64.632-1.357 1.208-1.998 1.833-.433.43-.774.84-1.028 1.378-.366.807-.427 1.708-.098 2.534.373.847 1.11 1.53 2.136 1.667.613.067 1.047-.079 1.597-.3.117-.045.259-.109.385-.126.242.009.353.011.456.176.043.12.918.172.96 0 .032-.129-.053-2.461 0-3.845.005-.12-.014-.191-.182-.197h-.788c-.168.007-.189.127-.203.201-.161.871-.57 2.653-1.551 3.01-.286.104-.625.106-.832-.056-.594-.462-.282-1.168.067-1.62.423-.527.924-.999 1.442-1.451.454-.399.905-.786 1.322-1.221.499-.531.879-1.059 1.112-1.73.227-.707.27-1.471.073-2.188-.474-1.598-1.941-2.309-3.629-2.308" fill="#c4122e" fill-rule="evenodd"/><path d="M201.6666 506.4138v-.179h.13c.034-.001.063.004.085.016.019.013.03.038.03.077-.002.038-.015.062-.041.073-.027.009-.059.013-.095.013zm-.153.125h.261c.2.003.301-.071.301-.223-.003-.122-.06-.186-.173-.192l.183-.323h-.182l-.165.309h-.072v-.309h-.153zm.264.156c-.143-.001-.258-.051-.344-.15-.088-.098-.132-.223-.133-.376.001-.148.045-.272.131-.372.086-.102.206-.154.361-.155.104 0 .205.043.304.131.099.086.151.219.155.398-.001.15-.044.274-.13.372-.087.099-.202.15-.344.152m0 .159c.196-.001.355-.064.478-.189.124-.124.186-.289.189-.495-.003-.208-.066-.373-.19-.495-.123-.126-.282-.19-.477-.192-.198.003-.359.068-.481.196-.123.126-.186.289-.189.489.003.207.067.373.193.497.122.125.281.188.477.189" fill="#bd8800"/></g></svg>